<svg width="10" height="14" viewBox="0 0 10 14" fill="none" xmlns="http://www.w3.org/2000/svg">
    <path d="M6.69228 9.75293V0.884766H9.32021V9.75293C9.32021 10.6084 9.13271 11.3438 8.75771 11.959C8.38271 12.5684 7.87001 13.0371 7.21962 13.3652C6.57509 13.6934 5.84853 13.8574 5.03993 13.8574C4.20204 13.8574 3.46083 13.7168 2.8163 13.4355C2.17177 13.1543 1.66493 12.7236 1.29579 12.1436C0.926653 11.5576 0.742083 10.8164 0.742083 9.91992H3.38759C3.38759 10.3887 3.45204 10.7607 3.58095 11.0361C3.71572 11.3115 3.90615 11.5078 4.15224 11.625C4.39833 11.7422 4.69423 11.8008 5.03993 11.8008C5.37392 11.8008 5.66396 11.7217 5.91005 11.5635C6.15615 11.4053 6.34657 11.1738 6.48134 10.8691C6.62197 10.5645 6.69228 10.1924 6.69228 9.75293Z" fill="#FF3232"/>
</svg>
