<svg width="12" height="12" viewBox="0 0 12 12" fill="none" xmlns="http://www.w3.org/2000/svg">
  <g clip-path="url(#clip0_291_541)">
  <rect width="12" height="12" rx="6" fill="black"/>
  <path opacity="0.9" d="M3.73241 3.12566L6 5.39411L8.26759 3.12566C8.30743 3.08582 8.35473 3.05422 8.40678 3.03266C8.45883 3.0111 8.51462 3 8.57096 3C8.62731 3 8.6831 3.0111 8.73515 3.03266C8.7872 3.05422 8.8345 3.08582 8.87434 3.12566C8.91418 3.1655 8.94578 3.2128 8.96734 3.26485C8.9889 3.3169 9 3.37269 9 3.42904C9 3.48538 8.9889 3.54117 8.96734 3.59322C8.94578 3.64527 8.91418 3.69257 8.87434 3.73241L6.60589 6L8.87434 8.26759C8.91418 8.30743 8.94578 8.35473 8.96734 8.40678C8.9889 8.45883 9 8.51462 9 8.57096C9 8.62731 8.9889 8.6831 8.96734 8.73515C8.94578 8.7872 8.91418 8.8345 8.87434 8.87434C8.8345 8.91418 8.7872 8.94578 8.73515 8.96734C8.6831 8.9889 8.62731 9 8.57096 9C8.51462 9 8.45883 8.9889 8.40678 8.96734C8.35473 8.94578 8.30743 8.91418 8.26759 8.87434L6 6.60589L3.73241 8.87434C3.69257 8.91418 3.64527 8.94578 3.59322 8.96734C3.54117 8.9889 3.48538 9 3.42904 9C3.37269 9 3.3169 8.9889 3.26485 8.96734C3.2128 8.94578 3.1655 8.91418 3.12566 8.87434C3.08582 8.8345 3.05422 8.7872 3.03266 8.73515C3.0111 8.6831 3 8.62731 3 8.57096C3 8.51462 3.0111 8.45883 3.03266 8.40678C3.05422 8.35473 3.08582 8.30743 3.12566 8.26759L5.39411 6L3.12566 3.73241C3.0452 3.65195 3 3.54282 3 3.42904C3 3.31525 3.0452 3.20612 3.12566 3.12566C3.20612 3.0452 3.31525 3 3.42904 3C3.54282 3 3.65195 3.0452 3.73241 3.12566Z" fill="white"/>
  </g>
  <defs>
  <clipPath id="clip0_291_541">
  <rect width="12" height="12" rx="6" fill="white"/>
  </clipPath>
  </defs>
</svg>
